<svg xmlns="http://www.w3.org/2000/svg" width="31.5" height="36" viewBox="0 0 31.5 36">
  <path id="Icon_awesome-book-dead" data-name="Icon awesome-book-dead" d="M19.125,9.563A1.125,1.125,0,1,0,18,8.438,1.128,1.128,0,0,0,19.125,9.563ZM31.5,25.2V1.8A1.656,1.656,0,0,0,29.7,0H6.75A6.63,6.63,0,0,0,0,6.75v22.5A6.63,6.63,0,0,0,6.75,36H29.7a1.775,1.775,0,0,0,1.8-1.8V33.075a1.945,1.945,0,0,0-.675-1.35,19.9,19.9,0,0,1,0-5.175A1.361,1.361,0,0,0,31.5,25.2ZM16.875,3.938c3.108,0,5.625,2.018,5.625,4.5a4.266,4.266,0,0,1-2.25,3.579v.921a1.128,1.128,0,0,1-1.125,1.125h-4.5A1.128,1.128,0,0,1,13.5,12.938v-.921a4.266,4.266,0,0,1-2.25-3.579C11.25,5.955,13.767,3.938,16.875,3.938ZM8.775,15.7l.443-1.034a.56.56,0,0,1,.738-.3l6.912,2.96,6.919-2.96a.56.56,0,0,1,.738.3l.443,1.034a.56.56,0,0,1-.3.738L19.73,18.563l4.943,2.116a.56.56,0,0,1,.3.738l-.443,1.034a.56.56,0,0,1-.738.3l-6.912-2.96L9.963,22.753a.56.56,0,0,1-.738-.3l-.443-1.034a.56.56,0,0,1,.3-.738l4.95-2.116L9.07,16.439a.56.56,0,0,1-.3-.738Zm18,15.8H6.75A2.126,2.126,0,0,1,4.5,29.25,2.255,2.255,0,0,1,6.75,27H26.775ZM14.625,9.563A1.125,1.125,0,1,0,13.5,8.438,1.128,1.128,0,0,0,14.625,9.563Z"/>
</svg>
