<svg xmlns="http://www.w3.org/2000/svg" width="22.339" height="34.56" viewBox="0 0 22.339 34.56">
  <path id="Icon_map-bank" data-name="Icon map-bank" d="M24.971,18.577A12.042,12.042,0,0,0,20.31,16.62l-1.59-.375V9.456l.215.088a4.015,4.015,0,0,1,2.174,3.416H26.52a7.928,7.928,0,0,0-3.192-6.515A11.035,11.035,0,0,0,18.72,4.478V.72H13.68V4.363A9.872,9.872,0,0,0,8.144,6.621a7.744,7.744,0,0,0-2.665,6.015A6.572,6.572,0,0,0,8.2,18.468a17.2,17.2,0,0,0,5.477,1.966v7.356a4.331,4.331,0,0,1-2.238-1.328,4.56,4.56,0,0,1-1.027-2.7H5.04a7.744,7.744,0,0,0,3.048,6.549,11.275,11.275,0,0,0,5.592,2.164V35.28h5.04V32.52a10.664,10.664,0,0,0,5.8-2.307,7.734,7.734,0,0,0,2.855-6.134A6.6,6.6,0,0,0,24.971,18.577ZM12,14.388a2.314,2.314,0,0,1-1.312-2.16A2.784,2.784,0,0,1,12.02,9.774a5.1,5.1,0,0,1,1.66-.682v5.921A8.681,8.681,0,0,1,12,14.388Zm7.542,13.253a7.012,7.012,0,0,1-.823.22V21.6a8.992,8.992,0,0,1,2.051.838,2.311,2.311,0,0,1,1.18,2.07A3.146,3.146,0,0,1,19.543,27.642Z" transform="translate(-5.04 -0.72)"/>
</svg>
