<svg xmlns="http://www.w3.org/2000/svg" width="28.8" height="33.121" viewBox="0 0 28.8 33.121">
  <path id="Icon_map-veterinary-care" data-name="Icon map-veterinary-care" d="M13.306,13.59a3.98,3.98,0,0,0,3.111-3.638c.192-1.856.626-9.315-2.174-8.841C6.979,2.343,7.489,14.576,13.306,13.59Zm9.557,0c5.815.986,6.325-11.247-.938-12.48-2.8-.474-2.367,6.985-2.175,8.841A3.983,3.983,0,0,0,22.862,13.59Zm-12.54,5.764a3.787,3.787,0,0,0-.9-2.49c-.918-1.2-3.836-3.625-4.553-3-1.5,1.3-1.447,4.5-.546,6.826a3.143,3.143,0,0,0,2.888,2.2A3.345,3.345,0,0,0,10.322,19.354ZM31.3,13.859c-.715-.621-3.633,1.8-4.551,3a3.788,3.788,0,0,0-.905,2.49,3.346,3.346,0,0,0,3.115,3.534,3.144,3.144,0,0,0,2.889-2.2C32.748,18.36,32.8,15.16,31.3,13.859Zm-5.858,11c-2.647-1.32-2.565-3.861-3.167-6.18a4.34,4.34,0,0,0-8.353-.113c-.644,2.219-.256,4.8-3.141,6.276-2.344.764-3.293,1.878-3.293,4.514A5,5,0,0,0,11.7,34.075,9.561,9.561,0,0,0,18.084,33a9.568,9.568,0,0,0,6.387,1.076,4.99,4.99,0,0,0,4.21-4.719c0-2.694-.889-3.7-3.238-4.5ZM22.32,28.08H19.576l0,2.88H16.587l0-2.88H13.68V25.2h2.912l0-2.88H19.58l0,2.88H22.32v2.88Z" transform="translate(-3.683 -1.089)"/>
</svg>
