<svg xmlns="http://www.w3.org/2000/svg" width="27" height="33" viewBox="0 0 27 33">
  <path id="Icon_material-cake" data-name="Icon material-cake" d="M18,9a3,3,0,0,0,3-3,2.855,2.855,0,0,0-.435-1.545L18,0,15.435,4.455A2.855,2.855,0,0,0,15,6,3.009,3.009,0,0,0,18,9Zm6.9,14.985-1.6-1.6-1.62,1.6a5.315,5.315,0,0,1-7.335,0l-1.605-1.6-1.635,1.6A5.152,5.152,0,0,1,7.44,25.5a5.212,5.212,0,0,1-2.94-.915V31.5A1.5,1.5,0,0,0,6,33H30a1.5,1.5,0,0,0,1.5-1.5V24.585a5.212,5.212,0,0,1-2.94.915A5.152,5.152,0,0,1,24.9,23.985ZM27,13.5H19.5v-3h-3v3H9A4.494,4.494,0,0,0,4.5,18v2.31a2.945,2.945,0,0,0,2.94,2.94A2.879,2.879,0,0,0,9.51,22.4L12.72,19.2,15.915,22.4a3.008,3.008,0,0,0,4.155,0L23.28,19.2,26.475,22.4a2.9,2.9,0,0,0,2.07.855,2.945,2.945,0,0,0,2.94-2.94V18A4.472,4.472,0,0,0,27,13.5Z" transform="translate(-4.5)"/>
</svg>
