<svg xmlns="http://www.w3.org/2000/svg" width="27" height="36" viewBox="0 0 27 36">
  <path id="Icon_awesome-ghost" data-name="Icon awesome-ghost" d="M13.085.006C5.7.228,0,6.674,0,14.066V32.623a1.125,1.125,0,0,0,1.92.8l1.752-1.3a1.125,1.125,0,0,1,1.512.155l3.02,3.4a1.125,1.125,0,0,0,1.591,0l2.863-3.224a1.124,1.124,0,0,1,1.682,0L17.2,35.67a1.125,1.125,0,0,0,1.591,0l3.02-3.4a1.125,1.125,0,0,1,1.512-.155l1.752,1.3a1.125,1.125,0,0,0,1.92-.8V13.5A13.5,13.5,0,0,0,13.085.006ZM9,15.75a2.25,2.25,0,1,1,2.25-2.25A2.25,2.25,0,0,1,9,15.75Zm9,0a2.25,2.25,0,1,1,2.25-2.25A2.25,2.25,0,0,1,18,15.75Z" transform="translate(0 0)"/>
</svg>
