<svg xmlns="http://www.w3.org/2000/svg" width="34.56" height="30.048" viewBox="0 0 34.56 30.048">
  <path id="Icon_map-hair-care" data-name="Icon map-hair-care" d="M30.408,18.223a2.9,2.9,0,0,1,1.137-.785l3.092-1.262a1.282,1.282,0,0,0,.644-1.043V6.314a1.126,1.126,0,0,0-.673-.976S28.139,2.88,23.806,2.88c-4.032,0-9.606,2.126-9.606,2.126a7.19,7.19,0,0,1-1.387.345L1.435,6.574a.837.837,0,0,0-.715.808v5.986a.9.9,0,0,0,.708.852L12.8,16.055a8.117,8.117,0,0,1,1.38.384l7.788,1.992a1.309,1.309,0,0,1,.947.788l4.578,13.22a.73.73,0,0,0,.918.451l4.841-1.628a.714.714,0,0,0,.447-.91l-3.178-9.168c-.13-.375-.239-.7-.244-.729l-.006-.027a2.634,2.634,0,0,1,.137-2.205Zm-5.525-4.758a3.215,3.215,0,1,1,3.265-3.215A3.24,3.24,0,0,1,24.882,13.465Z" transform="translate(-0.72 -2.88)"/>
</svg>
