<svg xmlns="http://www.w3.org/2000/svg" width="34.875" height="34.875" viewBox="0 0 34.875 34.875">
  <path id="Icon_awesome-laugh-squint" data-name="Icon awesome-laugh-squint" d="M17.438.563A17.438,17.438,0,1,0,34.875,18,17.434,17.434,0,0,0,17.438.563Zm2.377,11.37,5.625-3.375a.846.846,0,0,1,1.083,1.266l-2.363,2.834,2.362,2.834a.846.846,0,0,1-1.083,1.266L19.814,13.38a.849.849,0,0,1,0-1.448ZM8.353,9.823A.846.846,0,0,1,9.436,8.557l5.625,3.375a.843.843,0,0,1,0,1.448L9.436,16.755A.846.846,0,0,1,8.353,15.49l2.363-2.834L8.353,9.823ZM28.048,21.516A10.134,10.134,0,0,1,18,30.375H16.875A10.134,10.134,0,0,1,6.827,21.516,1.13,1.13,0,0,1,7.945,20.25H26.93A1.126,1.126,0,0,1,28.048,21.516Z" transform="translate(0 -0.563)"/>
</svg>
