<svg xmlns="http://www.w3.org/2000/svg" width="34.56" height="25.92" viewBox="0 0 34.56 25.92">
  <path id="Icon_map-political" data-name="Icon map-political" d="M8.88,15.84H10.8V27.36h2.88V17.28h2.88V27.36h2.88V17.28h2.88V27.36H25.2V15.84h1.92a1.039,1.039,0,0,0,.96-1.007.969.969,0,0,0-.4-.771v-.037L27.667,14l.1-.024L18.72,9.316V7.954c1.44.762,2.845-.551,5.04.239V5.184c-2.2-.789-3.6.523-5.04-.239V4.752c0-.238-.454-.432-.72-.432s-.72.194-.72.432V9.316L8.238,13.964l.2.015.207.008h0c-.72.157-.559.554-.559.843,0,.478.269,1.008.8,1.008Zm1.2,12.24L7.92,30.24H28.08l-2.16-2.16ZM25.92,16.56v10.8h.637l.282.4,1.92,1.8.679.683H35.28V16.56Zm4.32,8.64H28.08V23.04h2.16Zm0-4.32H28.08V18.72h2.16Zm2.88,4.32H31.68V23.04h1.44Zm0-4.32H31.68V18.72h1.44ZM9.442,27.36h.638V16.56H.72V30.24H6.562l.678-.611,1.92-1.872.282-.4ZM4.32,25.2H2.88V23.04H4.32Zm0-4.32H2.88V18.72H4.32Zm3.6,4.32H5.76V23.04H7.92Zm0-4.32H5.76V18.72H7.92Z" transform="translate(-0.72 -4.32)"/>
</svg>
