<svg xmlns="http://www.w3.org/2000/svg" width="28.08" height="33.84" viewBox="0 0 28.08 33.84">
  <path id="Icon_map-laundry" data-name="Icon map-laundry" d="M4.32,7.92V32.213A2.357,2.357,0,0,0,6.307,34.56H30.224A2.529,2.529,0,0,0,32.4,32.213V7.92ZM18.331,27.2a7.517,7.517,0,0,1-7.64-7.389,7.517,7.517,0,0,1,7.64-7.389,7.517,7.517,0,0,1,7.64,7.389A7.517,7.517,0,0,1,18.331,27.2ZM30.224.72H6.307a1.862,1.862,0,0,0-1.987,1.8V6.48H32.4V2.524A2.04,2.04,0,0,0,30.224.72ZM13.68,5.04H5.76V2.16h7.92Zm13.785-.2a1.6,1.6,0,0,1-1.626-1.575,1.628,1.628,0,0,1,3.254,0A1.6,1.6,0,0,1,27.465,4.838Z" transform="translate(-4.32 -0.72)"/>
</svg>
