<svg xmlns="http://www.w3.org/2000/svg" width="45" height="31.5" viewBox="0 0 45 31.5">
  <path id="Icon_awesome-wifi" data-name="Icon awesome-wifi" d="M44.642,10.89a32.692,32.692,0,0,0-44.284,0,1.118,1.118,0,0,0-.025,1.616l2.408,2.389a1.142,1.142,0,0,0,1.575.027,26.976,26.976,0,0,1,36.369,0,1.142,1.142,0,0,0,1.575-.027l2.408-2.389a1.118,1.118,0,0,0-.025-1.616ZM22.5,24.75a4.5,4.5,0,1,0,4.5,4.5A4.5,4.5,0,0,0,22.5,24.75Zm14.25-5.877a21.586,21.586,0,0,0-28.5,0A1.111,1.111,0,0,0,8.21,20.5l2.422,2.39a1.148,1.148,0,0,0,1.55.056,15.836,15.836,0,0,1,20.636,0,1.147,1.147,0,0,0,1.55-.056L36.79,20.5A1.111,1.111,0,0,0,36.75,18.873Z" transform="translate(0 -2.25)"/>
</svg>
